<svg width="24" height="24" viewBox="0 0 24 24" fill="none" xmlns="http://www.w3.org/2000/svg">
<path d="M24 2.84019C23.34 4.0541 22.5046 5.12073 21.5423 5.9772C21.5515 6.2372 21.5562 6.4989 21.5562 6.76117C21.5562 14.7674 16.6048 24 7.54754 24C4.76677 24 1.14277 22.8014 0 21.2782C0.385846 21.3348 0.778154 21.3632 1.17508 21.3632C3.48231 21.3632 5.60585 20.394 7.29 18.7688C5.13554 18.7201 3.31708 16.9675 2.69031 14.5601C3.67062 14.7493 4.914 14.4559 4.914 14.4559C4.914 14.4559 1.06385 13.6424 0.964154 8.439C2.07738 9.23317 3.19431 9.19691 3.19431 9.19691C3.19431 9.19691 0.973846 7.51455 1.00477 4.15492C1.02277 2.17291 1.67031 1.10741 1.67031 1.10741C5.87723 7.48283 11.8191 7.43921 11.8191 7.43921C11.8191 7.43921 11.6917 6.53402 11.6917 6.05934C11.6917 2.71387 13.8955 0 16.6149 0C18.0309 0 19.3103 0.736388 20.2085 1.91404C21.3309 1.64101 22.3851 1.13687 23.3358 0.442966C22.9062 2.5598 21.1712 3.79523 21.1712 3.79523C21.1712 3.79523 22.6569 3.59131 24 2.84019Z" fill="white"/>
</svg>
